<svg xmlns="http://www.w3.org/2000/svg" width="15.302" height="15.387" viewBox="0 0 15.302 15.387">
  <g id="SVGRepo_iconCarrier" transform="translate(-7 -7)">
    <path id="Path_7" data-name="Path 7" d="M17.087,14.694l4.7-4.7a1.653,1.653,0,0,0,0-2.394h0A1.461,1.461,0,0,0,20.678,7a1.688,1.688,0,0,0-1.2.513L14.694,12.3l-4.7-4.7A1.652,1.652,0,0,0,7.6,7.6,1.5,1.5,0,0,0,7,8.8a1.552,1.552,0,0,0,.513,1.2l4.7,4.7-4.7,4.7A2.162,2.162,0,0,0,7,20.678a1.693,1.693,0,0,0,2.906,1.2l4.7-4.7,4.7,4.7A1.693,1.693,0,0,0,21.7,19.481Z" fill="#fff"/>
  </g>
</svg>
