<svg xmlns="http://www.w3.org/2000/svg" width="17.611" height="17.77" viewBox="0 0 17.611 17.77">
  <g id="SVGRepo_iconCarrier" transform="translate(-3 -2.003)">
    <path id="Path_4" data-name="Path 4" d="M10.495,3.928H6.969a4.61,4.61,0,0,0-1.956.2,1.856,1.856,0,0,0-.811.811A4.61,4.61,0,0,0,4,6.9V15.8a4.61,4.61,0,0,0,.2,1.956,1.855,1.855,0,0,0,.811.811,4.61,4.61,0,0,0,1.956.2h8.907a4.61,4.61,0,0,0,1.956-.2,1.855,1.855,0,0,0,.811-.811,4.61,4.61,0,0,0,.2-1.956v-3.99M14.67,5.32l2.624,2.624m-7.02,1.771,6.168-6.168a1.856,1.856,0,0,1,2.624,2.624L12.7,12.538a11.689,11.689,0,0,1-1.462,1.341,5.564,5.564,0,0,1-1.148.616,11.7,11.7,0,0,1-1.926.476l-.453.091.044-.308a11.756,11.756,0,0,1,.411-2.145,5.566,5.566,0,0,1,.639-1.278A11.752,11.752,0,0,1,10.275,9.715Z" fill="none" stroke="#fff" stroke-linecap="round" stroke-linejoin="round" stroke-width="2"/>
  </g>
</svg>
