<svg xmlns="http://www.w3.org/2000/svg" width="21.382" height="21.36" viewBox="0 0 21.382 21.36">
  <g id="SVGRepo_iconCarrier" transform="translate(-2 -2)">
    <g id="Group_2" data-name="Group 2" transform="translate(2 2)">
      <path id="Path_1" data-name="Path 1" d="M10.455,22.692V21.357a.684.684,0,0,0-.667-.667H5.337a.684.684,0,0,1-.667-.667V5.337a.684.684,0,0,1,.667-.667h4.45A.684.684,0,0,0,10.455,4V2.667A.684.684,0,0,0,9.787,2H3.78A1.785,1.785,0,0,0,2,3.78v17.8a1.785,1.785,0,0,0,1.78,1.78H9.787A.684.684,0,0,0,10.455,22.692Z" transform="translate(-2 -2)" fill="#fff"/>
      <path id="Path_2" data-name="Path 2" d="M29.842,18.092a.645.645,0,0,0,0-.934L23.834,11.15a.645.645,0,0,0-.934,0l-.934.934a.645.645,0,0,0,0,.934l2.492,2.492a.445.445,0,0,1-.311.756H14.667a.647.647,0,0,0-.667.623v1.335a.725.725,0,0,0,.667.712H24.1a.445.445,0,0,1,.311.756l-2.492,2.492a.645.645,0,0,0,0,.934l.934.934a.645.645,0,0,0,.934,0Z" transform="translate(-8.66 -6.967)" fill="#fff"/>
    </g>
  </g>
</svg>
