<svg xmlns="http://www.w3.org/2000/svg" width="24.04" height="16.679" viewBox="0 0 24.04 16.679">
  <g id="SVGRepo_iconCarrier" transform="translate(-1005.629 -654.121)">
    <g id="Group_9" data-name="Group 9" transform="translate(1005.629 654.121)">
      <g id="Group_6" data-name="Group 6">
        <path id="Path_12" data-name="Path 12" d="M946.824,604.83c0,1.813-1.155,3.282-2.58,3.282s-2.579-1.469-2.579-3.282,1.155-3.282,2.579-3.282S946.824,603.017,946.824,604.83Z" transform="translate(-939.542 -601.548)" fill="#fff"/>
        <path id="Path_13" data-name="Path 13" d="M931.643,653.345a1.619,1.619,0,0,1,.606-.24,6.256,6.256,0,0,1-.918-2.211c-.049-.309-.441-.345-.733-.089a2.881,2.881,0,0,1-1.895.8,2.757,2.757,0,0,1-1.926-.831.49.49,0,0,0-.618-.062,5.152,5.152,0,0,0-2.118,2.987,1.191,1.191,0,0,0,.17.983,1.017,1.017,0,0,0,.83.446h4.648A8.527,8.527,0,0,1,931.643,653.345Z" transform="translate(-924 -644.275)" fill="#fff"/>
      </g>
      <g id="Group_7" data-name="Group 7" transform="translate(15.791)">
        <path id="Path_14" data-name="Path 14" d="M1063.41,604.83c0,1.813,1.155,3.282,2.58,3.282s2.58-1.469,2.58-3.282-1.155-3.282-2.58-3.282S1063.41,603.017,1063.41,604.83Z" transform="translate(-1062.444 -601.548)" fill="#fff"/>
        <path id="Path_15" data-name="Path 15" d="M1055.976,653.345a1.621,1.621,0,0,0-.606-.24,6.258,6.258,0,0,0,.918-2.211c.049-.309.442-.345.734-.089a2.881,2.881,0,0,0,1.895.8,2.756,2.756,0,0,0,1.926-.831.49.49,0,0,1,.618-.062,5.154,5.154,0,0,1,2.118,2.987,1.191,1.191,0,0,1-.17.983,1.017,1.017,0,0,1-.83.446h-4.648A8.522,8.522,0,0,0,1055.976,653.345Z" transform="translate(-1055.37 -644.275)" fill="#fff"/>
      </g>
      <g id="Group_8" data-name="Group 8" transform="translate(4.793)">
        <path id="Path_16" data-name="Path 16" d="M978.128,681.7a7.924,7.924,0,0,0-3.164-4.531.753.753,0,0,0-.952.082,4.065,4.065,0,0,1-5.872-.045.752.752,0,0,0-.95-.1,7.916,7.916,0,0,0-3.255,4.59,1.83,1.83,0,0,0,.26,1.51,1.564,1.564,0,0,0,1.276.685h11.121a1.561,1.561,0,0,0,1.276-.685A1.824,1.824,0,0,0,978.128,681.7Z" transform="translate(-963.873 -667.215)" fill="#fff"/>
        <path id="Path_17" data-name="Path 17" d="M998.949,606.592c0,2.786-1.775,5.044-3.964,5.044s-3.964-2.259-3.964-5.044,1.775-5.044,3.964-5.044S998.949,603.806,998.949,606.592Z" transform="translate(-987.758 -601.548)" fill="#fff"/>
      </g>
    </g>
  </g>
</svg>
