<svg xmlns="http://www.w3.org/2000/svg" width="14.985" height="18.732" viewBox="0 0 14.985 18.732">
  <g id="SVGRepo_iconCarrier" transform="translate(-4 -2)">
    <path id="Path_5" data-name="Path 5" d="M9.724,2A1.249,1.249,0,0,0,8.475,3.249a.624.624,0,0,1-.624.624H4.937a.937.937,0,0,0,0,1.873H18.049a.937.937,0,1,0,0-1.873H15.134a.624.624,0,0,1-.624-.624A1.249,1.249,0,0,0,13.262,2Z" fill="#fff" fill-rule="evenodd"/>
    <path id="Path_6" data-name="Path 6" d="M5.937,8A.937.937,0,0,0,5,9.014l.722,8.663a3.746,3.746,0,0,0,3.733,3.435h4.2a3.746,3.746,0,0,0,3.733-3.435l.722-8.663A.936.936,0,0,0,17.176,8Z" transform="translate(-0.063 -0.381)" fill="#fff" fill-rule="evenodd"/>
  </g>
</svg>
